<svg width="304" height="204" viewBox="0 0 304 204" fill="none" xmlns="http://www.w3.org/2000/svg">
<path d="M2 12C2 6.47716 6.47715 2 12 2H52C79.6142 2 102 24.3858 102 52V52C102 79.6142 79.6142 102 52 102H2V12Z" stroke="white" stroke-width="4"/>
<path d="M102 11.0909C102 6.07014 106.07 2 111.091 2V2C161.299 2 202 42.7014 202 92.9091V102H152C124.386 102 102 79.6142 102 52V11.0909Z" stroke="white" stroke-width="4"/>
<path d="M202 11.0909C202 6.07014 206.07 2 211.091 2V2C261.299 2 302 42.7014 302 92.9091V102H252C224.386 102 202 79.6142 202 52V11.0909Z" stroke="white" stroke-width="4"/>
<path d="M2 102H52C79.6142 102 102 124.386 102 152V192C102 197.523 97.5228 202 92 202H12C6.47716 202 2 197.523 2 192V102Z" stroke="white" stroke-width="4"/>
<path d="M102 152C102 124.386 124.386 102 152 102H202V192C202 197.523 197.523 202 192 202H152C124.386 202 102 179.614 102 152V152Z" stroke="white" stroke-width="4"/>
<path d="M202 152C202 124.386 224.386 102 252 102H302V192C302 197.523 297.523 202 292 202H252C224.386 202 202 179.614 202 152V152Z" stroke="white" stroke-width="4"/>
<path d="M102 52V52C106.046 77.7535 126.247 97.9543 152 102V102V102C126.247 106.046 106.046 126.247 102 152V152V152C97.9543 126.247 77.7535 106.046 52 102V102V102C77.7535 97.9543 97.9543 77.7535 102 52V52Z" fill="white"/>
</svg>
