<svg width="161" height="108" viewBox="0 0 161 108" fill="none" xmlns="http://www.w3.org/2000/svg">
<path d="M1 54H27.5M1 54V6.3C1 3.37289 3.37289 1 6.3 1H27.5C42.1355 1 54 12.8645 54 27.5M1 54V101.7C1 104.627 3.37289 107 6.3 107H48.7C51.6271 107 54 104.627 54 101.7V80.5M54 27.5C54 42.1355 42.1355 54 27.5 54M54 27.5V5.81818C54 3.15718 56.1572 1 58.8182 1C85.4283 1 107 22.5717 107 49.1818V54M54 27.5C54 42.1355 65.8645 54 80.5 54M27.5 54C42.1355 54 54 65.8645 54 80.5M107 54H80.5M107 54V101.7C107 104.627 104.627 107 101.7 107H80.5C65.8645 107 54 95.1355 54 80.5M80.5 54C65.8645 54 54 65.8645 54 80.5M160 54V49.1818C160 22.5717 138.428 1 111.818 1C109.157 1 107 3.15718 107 5.81818V27.5C107 42.1355 118.864 54 133.5 54M160 54H133.5M160 54V101.7C160 104.627 157.627 107 154.7 107H133.5C118.864 107 107 95.1355 107 80.5C107 65.8645 118.864 54 133.5 54" stroke="#C9D1D9" stroke-width="2"/>
<path d="M54 27.5C56.1442 41.1493 66.8507 51.8558 80.5 54C66.8507 56.1442 56.1442 66.8507 54 80.5C51.8558 66.8507 41.1493 56.1442 27.5 54C41.1493 51.8558 51.8558 41.1493 54 27.5Z" fill="#C9D1D9"/>
</svg>
