<svg width="306" height="206" viewBox="0 0 306 206" fill="none" xmlns="http://www.w3.org/2000/svg">
<path d="M3 23C3 11.9543 11.9543 3 23 3H103V53C103 80.6142 80.6142 103 53 103H3V23Z" stroke="#C9D1D9" stroke-width="6"/>
<path d="M103 3H123C167.183 3 203 38.8172 203 83V103H153C125.386 103 103 80.6142 103 53V3Z" stroke="#C9D1D9" stroke-width="6"/>
<path d="M203 23C203 11.9543 211.954 3 223 3V3C267.183 3 303 38.8172 303 83V103H253C225.386 103 203 80.6142 203 53V23Z" stroke="#C9D1D9" stroke-width="6"/>
<path d="M3 103H53C80.6142 103 103 125.386 103 153V183C103 194.046 94.0457 203 83 203H23C11.9543 203 3 194.046 3 183V103Z" stroke="#C9D1D9" stroke-width="6"/>
<path d="M103 153C103 125.386 125.386 103 153 103H203V183C203 194.046 194.046 203 183 203H153C125.386 203 103 180.614 103 153V153Z" stroke="#C9D1D9" stroke-width="6"/>
<path d="M203 153C203 125.386 225.386 103 253 103H303V183C303 194.046 294.046 203 283 203H253C225.386 203 203 180.614 203 153V153Z" stroke="#C9D1D9" stroke-width="6"/>
<path d="M103 62L105.138 67.7768C110.81 83.105 122.895 95.1904 138.223 100.862L144 103L138.223 105.138C122.895 110.81 110.81 122.895 105.138 138.223L103 144L100.862 138.223C95.1904 122.895 83.105 110.81 67.7768 105.138L62 103L67.7768 100.862C83.105 95.1904 95.1904 83.105 100.862 67.7768L103 62Z" fill="#C9D1D9"/>
</svg>
